<?xml version="1.0" encoding="UTF-8" standalone="no" ?>
<!DOCTYPE svg PUBLIC "-//W3C//DTD SVG 1.1//EN" "http://www.w3.org/Graphics/SVG/1.1/DTD/svg11.dtd">
<svg xmlns="http://www.w3.org/2000/svg" xmlns:xlink="http://www.w3.org/1999/xlink" version="1.1" width="1080" height="1080" viewBox="0 0 1080 1080" xml:space="preserve">
<desc>Created with Fabric.js 5.2.4</desc>
<defs>
</defs>
<rect x="0" y="0" width="100%" height="100%" fill="transparent"></rect>
<g transform="matrix(1 0 0 1 540 540)" id="368f602b-3028-4dfb-9f34-ece469b806e0"  >
<rect style="stroke: none; stroke-width: 1; stroke-dasharray: none; stroke-linecap: butt; stroke-dashoffset: 0; stroke-linejoin: miter; stroke-miterlimit: 4; fill: rgb(255,255,255); fill-rule: nonzero; opacity: 1; visibility: hidden;" vector-effect="non-scaling-stroke"  x="-540" y="-540" rx="0" ry="0" width="1080" height="1080" />
</g>
<g transform="matrix(1 0 0 1 540 540)" id="ee602076-1a70-4052-9453-d18bc88908a1"  >
</g>
<g transform="matrix(53.18 0 0 53.18 539.64 516.78)" id="d6055d0d-476a-4d84-a181-fea717440d76"  >
<path style="stroke: rgb(0,0,0); stroke-width: 0; stroke-dasharray: none; stroke-linecap: butt; stroke-dashoffset: 0; stroke-linejoin: miter; stroke-miterlimit: 4; fill: rgb(31,112,241); fill-rule: nonzero; opacity: 1;" vector-effect="non-scaling-stroke"  transform=" translate(-10, -10)" d="M 6 1 L 6 6 L 7 6 L 7 2 L 19 2 L 19 10 L 15 10 L 15 11 L 20 11 L 20 1 L 6 1 z M 0 7 L 0 17 L 5 17 L 5 18 L 3 18 L 3 19 L 11 19 L 11 18 L 9 18 L 9 17 L 14 17 L 14 7 L 0 7 z M 1 8 L 13 8 L 13 16 L 1 16 L 1 8 z M 15 12 L 15 13 L 17 13 L 17 12 L 15 12 z M 6 17 L 8 17 L 8 18 L 6 18 L 6 17 z" stroke-linecap="round" />
</g>
</svg>